<svg width="110mm" height="110mm" version="1.1" viewBox="0 0 110 110" xmlns="http://www.w3.org/2000/svg">
 <defs>
  <marker id="Arrow1Lstart" overflow="visible" orient="auto">
   <path transform="matrix(.8 0 0 .8 10 0)" d="m0 0 5-5-17.5 5 17.5 5z" fill="context-stroke" fill-rule="evenodd" stroke="context-stroke" stroke-width="1pt"/>
  </marker>
 </defs>
 <g>
  <ellipse transform="rotate(232.1)" cx="-77.185" cy="9.6139" rx="50" ry="50" fill="#fff" fill-rule="evenodd" stroke="#000" stroke-width="10"/>
  <path d="m32.561 69.784c0.52604-0.44803 1.3466-0.347 1.8417 0.16452 0.49449 0.51098 0.56838 1.335 0.10028 1.8476-0.46826 0.51274-1.3278 0.49609-1.9064-0.10544-0.57805-0.601-0.56144-1.4588-0.03559-1.9067zm-4.2405-7.2924c0.64853-0.2393 1.384 0.1399 1.6694 0.79755 0.28527 0.65741 0.05992 1.4534-0.5574 1.7639-0.6174 0.31054-1.4121-0.0075-1.7414-0.76615-0.32925-0.75841-0.01904-1.556 0.6294-1.7953zm-1.5419-8.2819c0.68708-0.0084 1.2515 0.59121 1.302 1.3024 0.05051 0.71154-0.42448 1.3854-1.1088 1.4724-0.68414 0.08689-1.3249-0.4763-1.3813-1.2987-0.05648-0.82271 0.50085-1.4677 1.1881-1.4761zm1.4265-8.2512c0.64392 0.2447 0.9469 1.007 0.73949 1.679-0.20765 0.6728-0.88695 1.1316-1.5538 0.97292-0.66663-0.15867-1.0681-0.90978-0.82613-1.703 0.24222-0.79396 0.99631-1.1938 1.6405-0.94897zm4.3998-7.1525c0.5127 0.45538 0.52422 1.2758 0.08199 1.8331-0.4418 0.5568-1.2432 0.73207-1.804 0.3362-0.56096-0.39602-0.65216-1.2399-0.1421-1.8817 0.50965-0.64124 1.3515-0.74287 1.8641-0.28766zm6.5067-5.3362c0.35457 0.59593 0.11234 1.3894-0.49251 1.7882-0.60451 0.39848-1.4278 0.309-1.8359-0.24642-0.4082-0.55556-0.22963-1.3895 0.45274-1.843 0.68204-0.45325 1.5212-0.29452 1.8756 0.30125zm7.8492-3.2768c0.17689 0.67428-0.27792 1.3762-0.97781 1.5942-0.69988 0.21794-1.4727-0.1016-1.71-0.7565-0.23735-0.6549 0.17275-1.4103 0.95838-1.6553 0.78562-0.24504 1.5526 0.14335 1.7295 0.81762zm7.638-0.19198c-0.48665 1e-6 -0.92949-0.3135-1.1365-0.80455m1.1365 1.1365c-0.17887 0.07874-0.37292 0.12164-0.56984 0.12599-0.72676 0.01604-1.379-0.50059-1.4264-1.194-0.04738-0.69328 0.55393-1.3029 1.3748-1.3187 0.21501-0.0041 0.4277 0.03491 0.62145 0.11374m1.1365 1.1365c-0.20699 0.49105-0.64982 0.80455-1.1365 0.80455m0 8.5c-0.69352 1e-6 -1.2557-0.62681-1.2557-1.4s0.56221-1.4 1.2557-1.4c0.69352 1e-6 1.2557 0.62681 1.2557 1.4s-0.56221 1.4-1.2557 1.4zm0 8.5c-0.69352 1e-6 -1.2557-0.62681-1.2557-1.4s0.56221-1.4 1.2557-1.4c0.69352 1e-6 1.2557 0.62681 1.2557 1.4s-0.56221 1.4-1.2557 1.4zm-0.9208 8.064c-0.39338-0.48031-0.33638-1.209 0.13414-1.7147m-0.45488 0.96051c-0.0094-0.06944-0.01418-0.13957-0.01418-0.20981 0-0.77321 0.56221-1.4 1.2557-1.4 0.69352 1e-6 1.2557 0.62681 1.2557 1.4 0 0.07023-0.0047 0.14037-0.01418 0.20981m-0.45488 0.96051c-0.58841 0.36166-1.3141 0.27395-1.7075-0.20636m-6.576 5.3858c-0.43943-0.53654-0.31073-1.3686 0.28746-1.8586s1.4393-0.45214 1.8788 0.0844c0.43943 0.53654 0.31072 1.3686-0.28747 1.8586-0.59819 0.48992-1.4393 0.45214-1.8788-0.0844zm-6.576 5.3858c-0.43943-0.53654-0.31072-1.3686 0.28747-1.8586 0.59819-0.48992 1.4393-0.45214 1.8788 0.0844 0.43943 0.53654 0.31072 1.3686-0.28747 1.8586-0.59819 0.48992-1.4393 0.45214-1.8788-0.0844zm-6.576 5.3858c-0.43943-0.53654-0.31072-1.3686 0.28746-1.8586 0.59819-0.48992 1.4393-0.45214 1.8788 0.0844 0.43943 0.53654 0.31072 1.3686-0.28747 1.8586-0.59819 0.48992-1.4393 0.45214-1.8788-0.0844z" fill="#01468a" stroke="#01468a" stroke-dashoffset=".75" stroke-width="2"/>
  <g fill="none" stroke="#000" stroke-linecap="round" stroke-width="8">
   <path d="m55 5v11.191" marker-mid="url(#Arrow1Lstart)"/>
   <path d="m105 55h-11.191" marker-mid="url(#Arrow1Lstart)"/>
   <path d="m55 105v-11.191" marker-mid="url(#Arrow1Lstart)"/>
   <path d="m5 55h11.191" marker-mid="url(#Arrow1Lstart)"/>
  </g>
  <g stroke="#000" stroke-linecap="round">
   <ellipse cx="55" cy="55" rx="8.5" ry="8.5"/>
   <path d="m55 52.5v-25" fill="none" stroke-width="8"/>
   <path d="m54.421 55.528-23.673 18.429" fill="none" stroke-width="8"/>
  </g>
  <g transform="matrix(.9102 0 0 .9102 4.9368 5.5919)" stroke-linecap="round">
   <circle cx="88.308" cy="87.268" r="25" fill="#fff" stroke="#000" stroke-width="5.4933"/>
   <path d="m75.137 90.89 8.0448 11.038 16.651-27.128" fill="none" stroke="#01468a" stroke-linejoin="round" stroke-width="8.7893"/>
  </g>
 </g>
</svg>
